<svg width="102" height="98" viewBox="0 0 102 98" fill="none" xmlns="http://www.w3.org/2000/svg">
<path d="M19.408 33.3368V41.4196L32.9028 42.704L30.3869 35.0503L19.408 33.3368Z" fill="#A169F7"/>
<path d="M86.3716 34.3795L24.0705 37.4929C23.4694 37.523 22.8683 37.4307 22.304 37.2214C21.7396 37.012 21.2237 36.6902 20.7876 36.2753C20.3515 35.8604 20.0043 35.3611 19.7671 34.8079C19.5299 34.2547 19.4078 33.659 19.408 33.057C19.4085 32.0332 19.7626 31.041 20.4102 30.2481C21.0579 29.4552 21.9595 28.9103 22.9626 28.7054L79.6154 17.1644C80.4335 16.9977 81.2784 17.015 82.089 17.2151C82.8996 17.4151 83.6556 17.7929 84.3022 18.321C84.9489 18.8491 85.47 19.5144 85.8279 20.2687C86.1858 21.023 86.3715 21.8474 86.3716 22.6823V34.3795Z" fill="#5A4A8C"/>
<path d="M45.7586 13.0632H43.3718L41.3828 14.124C39.0623 15.7815 39.5264 19.2954 39.5264 23.2734C39.5264 27.3176 39.1286 30.7652 41.3828 32.4227L43.1729 33.4835H45.6923C49.6039 33.4835 53.5819 28.9088 53.5819 23.2071C53.6482 17.6379 49.6039 13.0632 45.7586 13.0632Z" fill="#F2BB22"/>
<path d="M43.2389 33.6161C47.7061 33.6161 51.3275 29.0152 51.3275 23.3397C51.3275 17.6641 47.7061 13.0632 43.2389 13.0632C38.7718 13.0632 35.1504 17.6641 35.1504 23.3397C35.1504 29.0152 38.7718 33.6161 43.2389 33.6161Z" fill="#FFD869"/>
<path d="M38.9297 30.5C38.8634 30.5 38.7308 30.4337 38.6645 30.3674C37.0733 28.5773 36.2114 26.058 36.2114 23.2734C36.2114 18.1683 39.3275 14.0577 43.2392 14.0577C45.0956 14.0577 46.8193 14.9859 48.1453 16.6434C48.2779 16.776 48.2116 16.9749 48.079 17.1075C47.9464 17.2401 47.7475 17.1738 47.6149 17.0412C46.4215 15.5163 44.8967 14.6544 43.2392 14.6544C39.7253 14.6544 36.8744 18.4998 36.8744 23.2071C36.8744 25.7928 37.7363 28.1795 39.1949 29.837C39.3275 29.9696 39.3275 30.1685 39.1949 30.3011C39.1286 30.4337 38.996 30.5 38.9297 30.5Z" fill="#F2BB22"/>
<path d="M43.239 28.7099C42.5097 28.7099 41.8467 28.4447 41.3827 27.9806C41.2501 27.848 41.2501 27.6491 41.3827 27.5165C41.5153 27.3839 41.7141 27.3839 41.8467 27.5165C42.1119 27.848 42.6423 28.0469 43.1727 28.0469C44.0346 28.0469 44.7639 27.5828 44.7639 26.9861V19.6932C44.7639 19.4943 44.8965 19.3617 45.0954 19.3617C45.2943 19.3617 45.4269 19.4943 45.4269 19.6932V26.9861C45.4269 27.9143 44.4324 28.7099 43.239 28.7099Z" fill="#F2BB22"/>
<path d="M72.8748 0.400024H70.488L68.499 1.46082C66.1785 3.11831 66.6426 6.63218 66.6426 10.6102C66.6426 14.5881 66.2448 18.102 68.499 19.7595L70.2891 20.8203H72.8085C76.7201 20.8203 80.6981 16.2456 80.6981 10.5439C80.6981 4.84209 76.7864 0.400024 72.8748 0.400024Z" fill="#F2BB22"/>
<path d="M70.3554 20.9529C74.8226 20.9529 78.4439 16.352 78.4439 10.6765C78.4439 5.00094 74.8226 0.400024 70.3554 0.400024C65.8882 0.400024 62.2668 5.00094 62.2668 10.6765C62.2668 16.352 65.8882 20.9529 70.3554 20.9529Z" fill="#FFD869"/>
<path d="M66.1123 17.8368C66.046 17.8368 65.9134 17.7705 65.8471 17.7042C64.2559 15.9141 63.394 13.3947 63.394 10.6102C63.394 5.5051 66.5101 1.39453 70.4218 1.39453C72.2782 1.39453 74.002 2.32272 75.328 3.98021C75.4606 4.11281 75.3943 4.31171 75.2617 4.44431C75.1291 4.57691 74.9302 4.51061 74.7976 4.37801C73.6042 2.85312 72.0793 1.99123 70.4218 1.99123C66.9079 1.99123 64.057 5.8366 64.057 10.5439C64.057 13.1295 64.9189 15.5163 66.3775 17.1738C66.5101 17.3064 66.5101 17.5053 66.3775 17.6379C66.2449 17.8368 66.1786 17.8368 66.1123 17.8368Z" fill="#F2BB22"/>
<path d="M70.3555 16.0467C69.6262 16.0467 68.9632 15.7815 68.4991 15.3174C68.3665 15.1848 68.3665 14.9859 68.4991 14.8533C68.6317 14.7207 68.8306 14.7207 68.9632 14.8533C69.2284 15.1848 69.7588 15.3837 70.2892 15.3837C71.1511 15.3837 71.8804 14.9196 71.8804 14.3229V7.02998C71.8804 6.83109 72.013 6.69849 72.2119 6.69849C72.4108 6.69849 72.5434 6.83109 72.5434 7.02998V14.3229C72.6097 15.3174 71.6152 16.0467 70.3555 16.0467Z" fill="#F2BB22"/>
<path d="M65.7808 28.2458H63.394L61.405 29.3066C59.0845 30.9641 59.5486 34.478 59.5486 38.456C59.5486 42.5003 59.1508 45.9478 61.405 47.6053L63.1951 48.6661H65.7145C69.6261 48.6661 73.6041 44.0914 73.6041 38.3897C73.7367 32.8205 69.6925 28.2458 65.7808 28.2458Z" fill="#F2BB22"/>
<path d="M63.2614 48.7987C67.7286 48.7987 71.3499 44.1978 71.3499 38.5223C71.3499 32.8468 67.7286 28.2458 63.2614 28.2458C58.7942 28.2458 55.1729 32.8468 55.1729 38.5223C55.1729 44.1978 58.7942 48.7987 63.2614 48.7987Z" fill="#FFD869"/>
<path d="M59.0183 45.6826C58.952 45.6826 58.8194 45.6163 58.7531 45.55C57.1619 43.76 56.3 41.2406 56.3 38.456C56.3 33.3509 59.4161 29.2404 63.3278 29.2404C65.1842 29.2404 66.908 30.1686 68.234 31.826C68.3666 31.9586 68.3003 32.1575 68.1677 32.2901C68.0351 32.4227 67.8362 32.3564 67.7036 32.2238C66.5102 30.6989 64.9853 29.8371 63.3278 29.8371C59.8139 29.8371 56.963 33.6824 56.963 38.3897C56.963 40.9754 57.8249 43.3622 59.2835 45.0197C59.4161 45.1523 59.4161 45.3511 59.2835 45.4837C59.1509 45.6826 59.0846 45.6826 59.0183 45.6826Z" fill="#F2BB22"/>
<path d="M63.2615 43.8925C62.5322 43.8925 61.8692 43.6273 61.4051 43.1633C61.2725 43.0307 61.2725 42.8318 61.4051 42.6992C61.5377 42.5666 61.7366 42.5666 61.8692 42.6992C62.1344 43.0307 62.6648 43.2296 63.1952 43.2296C64.0571 43.2296 64.7864 42.7655 64.7864 42.1688V34.8758C64.7864 34.6769 64.919 34.5443 65.1179 34.5443C65.3168 34.5443 65.4494 34.6769 65.4494 34.8758V42.1688C65.5157 43.097 64.5212 43.8925 63.2615 43.8925Z" fill="#F2BB22"/>
<path d="M101.8 39.539V85.5809C101.799 86.32 101.653 87.0517 101.369 87.7343C101.086 88.4168 100.67 89.0368 100.147 89.5588C99.6239 90.0808 99.0029 90.4946 98.3196 90.7766C97.6364 91.0585 96.9043 91.2031 96.1652 91.202H25.0454C24.3063 91.2031 23.5742 91.0585 22.8909 90.7766C22.2077 90.4946 21.5867 90.0808 21.0634 89.5588C20.5402 89.0368 20.1249 88.4168 19.8413 87.7343C19.5577 87.0517 19.4114 86.32 19.4106 85.5809V37.7196L95.8936 33.9043C96.6559 33.8685 97.4175 33.9877 98.1324 34.2547C98.8472 34.5217 99.5005 34.931 100.053 35.4577C100.605 35.9845 101.044 36.6177 101.345 37.3193C101.645 38.0208 101.8 38.7759 101.8 39.539Z" fill="#A169F7"/>
<path d="M90.9542 64.7555C93.137 64.7555 94.9066 62.9859 94.9066 60.803C94.9066 58.6202 93.137 56.8506 90.9542 56.8506C88.7713 56.8506 87.0017 58.6202 87.0017 60.803C87.0017 62.9859 88.7713 64.7555 90.9542 64.7555Z" fill="#5A4A8C"/>
<path d="M44.2976 50.5517C40.7947 50.5517 35.3215 49.9277 32.3659 48.858C30.9428 48.3232 29.1914 48.3232 27.7683 48.858C24.7032 49.9277 23.4991 50.5517 19.9962 50.5517C16.7122 50.5517 13.5377 50.0168 10.6915 49.0363C9.26849 48.5906 7.84546 49.3929 7.84546 50.6408V71.7663C7.84546 82.1063 21.5287 90.5743 30.6144 93.5158C31.5996 93.8724 32.6942 93.8724 33.6794 93.5158C42.8746 90.6634 56.4484 82.1954 56.4484 71.7663V50.6408C56.4484 49.3929 54.9159 48.5906 53.6023 49.0363C50.7561 50.0168 47.5816 50.5517 44.2976 50.5517Z" fill="#5A4A8C"/>
<path d="M38.9992 46.5658C35.6254 46.5658 30.3538 45.8278 27.5071 44.5626C26.1365 43.93 24.4496 43.93 23.079 44.5626C20.1269 45.8278 18.9671 46.5658 15.5933 46.5658C12.4303 46.5658 9.37281 45.9332 6.63158 44.7735C5.26097 44.2463 3.89038 45.1952 3.89038 46.6712V71.6586C3.89038 83.8887 17.0693 93.9046 25.8202 97.3839C26.7691 97.8056 27.8234 97.8056 28.7723 97.3839C37.6285 94.0101 50.7021 83.9941 50.7021 71.6586V46.6712C50.7021 45.1952 49.2261 44.2463 47.9609 44.7735C45.2197 45.9332 42.1621 46.5658 38.9992 46.5658Z" fill="#00B9FB"/>
<path d="M25.8202 87.3679C25.2931 87.3679 24.8714 86.9462 24.7659 86.419C24.7659 86.3136 23.5007 73.24 23.5007 53.8406C23.5007 53.208 23.9225 52.7863 24.5551 52.7863C25.1876 52.7863 25.6094 53.208 25.6094 53.8406C25.6094 73.1346 26.7692 86.1027 26.7692 86.2082C26.98 86.8408 26.5583 87.2625 25.8202 87.3679C25.9257 87.3679 25.9257 87.3679 25.8202 87.3679Z" fill="#006999"/>
<path d="M26.3473 92.3232C25.8201 92.3232 25.293 92.2178 24.7658 92.0069C18.0182 89.3711 7.26416 81.4638 7.26416 71.3423V53.946C7.26416 53.3135 7.68589 52.8917 8.31848 52.8917C8.95107 52.8917 9.3728 53.3135 9.3728 53.946V71.3423C9.3728 79.9877 18.8616 87.4733 25.5039 90.0037C26.031 90.2145 26.5582 90.2145 27.0853 90.0037C33.833 87.4733 43.2164 79.8823 43.2164 71.3423C43.2164 70.7097 43.6381 70.288 44.2707 70.288C44.9033 70.288 45.325 70.7097 45.325 71.3423C45.325 81.4638 34.571 89.3711 27.8234 92.0069C27.2962 92.2178 26.8745 92.3232 26.3473 92.3232Z" fill="#006999"/>
<path d="M44.271 67.0195C43.6384 67.0195 43.2167 66.5978 43.2167 65.9652V51.7319C43.1112 51.6265 43.1112 51.6265 43.0058 51.6265C40.5809 52.6808 37.9451 53.3134 35.3093 53.3134C32.568 53.3134 28.7725 52.5753 26.453 51.521C25.5041 51.0993 24.5552 51.0993 23.7118 51.521C21.6031 52.4699 19.5999 53.3134 16.7533 53.3134C14.6446 53.3134 12.8523 52.9971 10.9545 52.259C10.4274 52.0482 10.111 51.4156 10.3219 50.8884C10.5328 50.3613 11.1654 50.045 11.6926 50.2559C13.3795 50.8885 14.9609 51.2047 16.7533 51.2047C18.9674 51.2047 20.5488 50.5721 22.8683 49.6232C24.2389 48.9907 25.9259 48.9907 27.2965 49.6232C29.4051 50.5721 32.8843 51.2047 35.3093 51.2047C37.7342 51.2047 40.0537 50.6776 42.1623 49.7287C42.9004 49.4124 43.6384 49.5178 44.271 49.9395C44.9036 50.3613 45.3253 50.9939 45.3253 51.8374V66.0707C45.3253 66.4924 44.9036 67.0195 44.271 67.0195Z" fill="#006999"/>
<path d="M6.52617 85.8919C5.47185 85.8919 4.41756 85.3647 3.78497 84.3104C0.094853 78.0899 0.200259 64.0675 0.200259 62.5914C0.200259 60.9045 1.6763 59.4285 3.36321 59.4285C5.15556 59.4285 6.52617 60.9045 6.52617 62.5914C6.42074 67.863 7.15873 77.5627 9.26737 81.042C10.1108 82.518 9.6891 84.5213 8.21305 85.3647C7.68589 85.681 7.05333 85.8919 6.52617 85.8919Z" fill="#00B9FB"/>
<path d="M6.58809 62.4689C6.58809 60.8907 5.41155 59.5229 3.80713 59.3125V71.412C3.80713 76.2518 5.83938 80.6708 8.94125 84.5636C9.9039 83.5115 10.1178 82.0385 9.36905 80.8812C7.22983 77.4091 6.48113 67.7295 6.58809 62.4689Z" fill="#0086F7"/>
</svg>
