<svg width="82" height="101" viewBox="0 0 82 101" fill="none" xmlns="http://www.w3.org/2000/svg">
<path d="M41 1.50037C36.5 5.62537 25.4375 14.0629 8.1875 17.0629C6.3125 17.4379 4.8125 19.1254 4.8125 21.0004V57.5629C4.8125 81.9379 32.1875 96.3754 40.8125 100.313C42.5 101.063 44.375 101.063 45.875 100.313C54.5 96.3754 81.875 81.9379 81.875 57.5629V21.0004C81.875 19.1254 80.5625 17.4379 78.5 17.0629C61.25 14.0629 50.1875 5.62537 45.6875 1.50037C44.375 0.187866 42.3125 0.187866 41 1.50037Z" fill="#97CF00"/>
<path d="M45.6875 42.3754C49.0625 34.8754 46.25 25.8754 51.5 20.8129C55.4375 16.8754 60.6875 18.3754 63.125 19.3129C63.875 19.6879 63.875 20.4379 63.3125 21.0004L57.5 25.8754C56.9375 26.2504 56.9375 27.0004 57.3125 27.5629L61.0625 31.8754C61.4375 32.4379 62.1875 32.4379 62.75 32.0629L67.8125 27.5629C68.375 27.0004 69.3125 27.3754 69.5 28.1254C69.875 30.3754 70.0625 34.1254 67.625 37.3129C63.875 41.8129 59.375 39.5629 52.625 46.6879L45.6875 42.3754Z" fill="white"/>
<path d="M45.6875 42.3754L23.75 70.6879C18.6875 76.3129 24.125 81.0004 24.125 81.0004C24.125 81.0004 30.6875 87.5629 35.9375 77.6254L52.25 46.6879L45.6875 42.3754Z" fill="#009500"/>
<path d="M47.5624 52.1253C45.4999 49.6878 42.1249 52.5003 42.1249 52.5003C42.1249 52.5003 38.9374 54.3753 40.6249 57.1878L53.5624 78.1878C57.3124 82.6878 61.6249 79.5003 61.6249 79.5003C61.6249 79.5003 67.8124 75.5628 64.0624 70.5003L47.5624 52.1253Z" fill="#00B8FC"/>
<path d="M42.125 52.5004C42.125 52.5004 42.875 51.7504 44 51.3754L29.1875 31.5004L29.5625 30.1879C29.75 29.6254 29.375 28.8754 29 28.5004L24.125 24.7504L21.125 26.6254L23.375 32.4379C23.5625 33.0004 24.125 33.3754 24.875 33.5629L26.375 33.7504L41 53.4379C41.5625 52.8754 42.125 52.5004 42.125 52.5004Z" fill="white"/>
<path d="M4.8125 28.3129C2.5625 28.3129 0.6875 30.1879 0.6875 32.4379V60.0004C0.6875 62.2504 2.5625 64.1254 4.8125 64.1254C5 64.1254 5.1875 64.1254 5.5625 64.1254C5.1875 62.0629 4.8125 59.8129 4.8125 57.5629V28.3129Z" fill="#00B8FC"/>
<path d="M8.9375 60.0004V32.4379C8.9375 30.1879 7.0625 28.3129 4.8125 28.3129V57.5629C4.8125 59.8129 5 62.0629 5.5625 64.1254C7.4375 63.7504 8.9375 62.0629 8.9375 60.0004Z" fill="#009500"/>
</svg>
