<svg width="120" height="82" viewBox="0 0 120 82" fill="none" xmlns="http://www.w3.org/2000/svg">
<path d="M118.774 79.7365L30.9645 81.2C30.5024 81.2 30.0402 80.9689 29.8091 80.5838L1.2326 29.8238C0.770444 28.9765 1.38667 27.9752 2.31098 27.9752H82.5718C82.9569 27.9752 83.342 28.1293 83.5731 28.5144L119.621 77.8109C120.391 78.5041 119.775 79.6595 118.774 79.7365Z" fill="#78D000"/>
<path d="M30.1172 27.8982C30.1172 27.8982 42.2103 33.213 31.9658 40.9155C25.4186 45.9222 26.9591 48.6181 35.586 50.0816C55.9978 53.6248 83.419 51.16 89.0419 58.9396C95.5891 67.9516 66.9355 68.0286 86.346 80.2757L68.476 80.5838C68.476 80.5838 64.4707 76.1933 72.4813 71.3407C79.7218 67.0273 74.7151 59.9409 61.8519 58.9396C47.7561 57.8612 27.4213 56.3977 23.9551 49.1573C21.0282 42.9952 33.2752 40.8385 28.6537 34.7535C24.8794 29.7468 14.0188 27.9752 14.0188 27.9752H30.1172V27.8982Z" fill="#006833"/>
<path d="M0 27.8982L4.62154 35.6778H9.78223C10.2444 35.6778 10.7065 35.9089 10.9376 36.294L12.8633 38.9899C13.1714 39.375 13.5565 39.6061 14.0186 39.6061H24.7252C25.2644 39.6061 25.5725 38.9899 25.1874 38.5278L20.1807 32.5197C19.8726 32.2116 19.4875 31.9806 19.1024 31.9806H9.78223C9.32008 31.9806 8.85792 31.7495 8.62684 31.3644L6.23907 27.9752H0V27.8982Z" fill="white"/>
<path d="M61.3125 77.4258L48.6802 77.6569C48.1411 77.6569 47.6789 77.4258 47.3708 76.9636L40.0534 64.6395C39.7453 64.1003 40.1305 63.4841 40.6696 63.4841L59.4638 63.2531C60.08 63.2531 60.6192 63.5612 60.9274 64.0233L64.0084 68.3368C64.3165 68.7989 64.0084 69.4151 63.4692 69.4151L58.0774 69.5692C57.6923 69.5692 57.4612 70.0313 57.6923 70.4165L61.7746 76.4245C62.1597 76.8096 61.8517 77.4258 61.3125 77.4258Z" fill="white"/>
<path d="M78.4121 47.3087H74.5608C74.0987 47.3087 73.6365 47.0776 73.4054 46.6155L71.6338 43.5344C71.4027 43.1493 71.7108 42.6871 72.0959 42.6871H75.7932C76.2554 42.6871 76.7175 42.9182 76.9486 43.3033L78.8742 46.3844C79.1823 46.8465 78.8743 47.3087 78.4121 47.3087Z" fill="white"/>
<path d="M96.4364 52.0843H86.8852C86.269 52.0843 85.7298 51.7762 85.4217 51.314L81.2623 45.075C81.0313 44.6898 81.2623 44.1506 81.8015 44.1506H91.6608C92.2 44.1506 92.6621 44.3817 92.9702 44.8439L97.0526 51.0829C97.2837 51.5451 96.8985 52.0843 96.4364 52.0843Z" fill="white"/>
<path d="M52.5315 16.4984C44.1356 16.4984 37.3574 23.2767 37.3574 31.6725C37.3574 45.7682 48.3721 66.257 51.6072 71.9569C51.9923 72.6502 52.9937 72.6502 53.3788 71.9569C56.6139 66.257 67.6286 45.7682 67.6286 31.6725C67.7056 23.2767 60.9273 16.4984 52.5315 16.4984Z" fill="#FF6163"/>
<path d="M52.5317 36.7561C55.3393 36.7561 57.6155 34.4801 57.6155 31.6724C57.6155 28.8648 55.3393 26.5887 52.5317 26.5887C49.724 26.5887 47.448 28.8648 47.448 31.6724C47.448 34.4801 49.724 36.7561 52.5317 36.7561Z" fill="#AE1411"/>
<path d="M49.5277 39.9912L45.5223 43.3033C44.5209 44.0736 44.0588 45.306 44.2129 46.5384L44.3669 47.6938C44.4439 48.233 44.9061 48.6951 45.4453 48.6951H60.2342C60.8504 48.6951 61.3126 48.233 61.3126 47.6168V46.3844C61.3126 45.306 60.8505 44.2276 59.9261 43.5344L55.6897 40.0683C53.8411 38.6048 51.2993 38.6048 49.5277 39.9912Z" fill="#AE1411"/>
<path d="M17.9471 0.400024C12.3243 0.400024 7.85669 4.94455 7.85669 10.4904C7.85669 19.8875 15.2512 33.5981 17.4079 37.3724C17.639 37.8345 18.3322 37.8345 18.5633 37.3724C20.72 33.5211 28.1145 19.8875 28.1145 10.4904C28.0375 4.94455 23.57 0.400024 17.9471 0.400024Z" fill="#FF6163"/>
<path d="M17.947 13.8796C19.8188 13.8796 21.3361 12.3622 21.3361 10.4905C21.3361 8.61869 19.8188 7.10132 17.947 7.10132C16.0752 7.10132 14.5579 8.61869 14.5579 10.4905C14.5579 12.3622 16.0752 13.8796 17.947 13.8796Z" fill="#AE1411"/>
<path d="M15.9444 16.2673L13.2485 18.5011C12.6323 19.0402 12.2472 19.8105 12.3242 20.6578L12.4012 21.428C12.4012 21.8132 12.7864 22.0443 13.0945 22.0443H22.9538C23.3389 22.0443 23.647 21.7361 23.647 21.351V20.5037C23.647 19.7335 23.3389 19.0403 22.7227 18.5781L19.8728 16.2673C18.7944 15.343 17.0998 15.343 15.9444 16.2673Z" fill="#AE1411"/>
<path d="M89.5809 0.400024C82.3405 0.400024 76.4866 6.25398 76.4866 13.4944C76.4866 25.6645 86.0378 43.3804 88.8107 48.3871C89.1188 49.0033 90.0431 49.0033 90.3512 48.3871C93.1241 43.4574 102.675 25.7415 102.675 13.4944C102.752 6.25398 96.8214 0.400024 89.5809 0.400024Z" fill="#FF6163"/>
<path d="M89.581 17.8848C92.0057 17.8848 93.9714 15.9191 93.9714 13.4943C93.9714 11.0696 92.0057 9.10388 89.581 9.10388C87.1562 9.10388 85.1904 11.0696 85.1904 13.4943C85.1904 15.9191 87.1562 17.8848 89.581 17.8848Z" fill="#AE1411"/>
<path d="M86.9619 20.8119L83.4958 23.6618C82.6485 24.3551 82.1863 25.4334 82.3404 26.5118L82.4174 27.5131C82.4944 27.9753 82.8795 28.3604 83.3417 28.3604H96.128C96.6672 28.3604 97.0523 27.9753 97.0523 27.4361V26.3577C97.0523 25.4334 96.5901 24.5091 95.8969 23.8929L92.1996 20.8889C90.7361 19.5795 88.5024 19.5795 86.9619 20.8119Z" fill="#AE1411"/>
<path d="M24.1862 73.4974C23.1079 73.4974 22.0295 72.8812 21.4903 71.8799L14.2499 58.7085C13.4026 57.245 14.0188 55.3193 15.4823 54.5491C16.9458 53.7018 18.8714 54.318 19.6417 55.7815L26.8821 68.9529C27.7294 70.4164 27.1132 72.342 25.6497 73.1123C25.2646 73.4204 24.7254 73.4974 24.1862 73.4974Z" fill="#78D000"/>
<path d="M19.7185 55.7815C18.8712 54.318 17.0225 53.7018 15.559 54.5491C15.482 54.5491 15.405 54.6261 15.405 54.7031L25.8035 73.1893C27.267 72.342 27.8062 70.4934 27.0359 69.0299L19.7185 55.7815Z" fill="#37AA00"/>
</svg>
