<svg width="106" height="29" viewBox="0 0 106 29" fill="none" xmlns="http://www.w3.org/2000/svg">
<path fill-rule="evenodd" clip-rule="evenodd" d="M71.2827 10.7571H75.2344V24.7673H71.2827V10.7571Z" fill="black"/>
<path fill-rule="evenodd" clip-rule="evenodd" d="M65.6794 10.7571L61.8103 20.9513L57.9411 10.7571H53.9902L59.3095 24.7681H64.311L69.6286 10.7571H65.6794" fill="black"/>
<path fill-rule="evenodd" clip-rule="evenodd" d="M89.1861 13.845V10.7571H84.4525V6.89209H80.5041V10.7571H77.3784V13.845H80.5041V19.873C80.5041 22.9815 82.1103 25.0567 86.2115 25.0567C87.7964 25.0567 89.1861 24.4946 89.1861 24.4946L88.7065 21.4684C88.7065 21.4684 87.9271 21.6937 86.9713 21.6937C85.7997 21.6937 84.4525 21.2043 84.4525 19.6367V13.845H89.1861" fill="black"/>
<path fill-rule="evenodd" clip-rule="evenodd" d="M51.0492 24.7681H55.255L47.466 4.24683H44.4154L36.6265 24.7681H40.8314L42.3191 20.8501H49.5615L51.0492 24.7681ZM43.4906 17.7622L45.9407 11.3105L48.39 17.7622H43.4906Z" fill="black"/>
<path fill-rule="evenodd" clip-rule="evenodd" d="M98.2464 10.3998C93.9638 10.3998 90.4917 13.6869 90.4917 17.7385C90.4917 21.7933 93.9638 25.0781 98.2464 25.0781C102.527 25.0781 106 21.7933 106 17.7385C106 13.6869 102.527 10.3998 98.2464 10.3998ZM98.2464 21.5648C96.0438 21.5648 94.2579 19.8746 94.2579 17.7899C94.2579 15.7068 96.0438 14.0166 98.2464 14.0166C100.449 14.0166 102.233 15.7068 102.233 17.7899C102.233 19.8746 100.449 21.5648 98.2464 21.5648Z" fill="black"/>
<path fill-rule="evenodd" clip-rule="evenodd" d="M75.8059 6.6549C75.8059 8.01624 74.6646 9.11906 73.2569 9.11906C71.8517 9.11906 70.7129 8.01624 70.7129 6.6549C70.7129 5.29277 71.8517 4.18994 73.2569 4.18994C74.6646 4.18994 75.8059 5.29277 75.8059 6.6549" fill="black"/>
<path fill-rule="evenodd" clip-rule="evenodd" d="M13.3125 6.44067C13.3125 9.99817 10.3322 12.8813 6.65666 12.8813C2.9803 12.8813 0 9.99817 0 6.44067C0 2.88316 2.9803 0 6.65666 0C10.3322 0 13.3125 2.88316 13.3125 6.44067" fill="#00AAFF"/>
<path fill-rule="evenodd" clip-rule="evenodd" d="M29.9705 21.1631C29.9705 25.4914 26.3448 28.9999 21.8719 28.9999C17.399 28.9999 13.7725 25.4914 13.7725 21.1631C13.7725 16.8348 17.399 13.3271 21.8719 13.3271C26.3448 13.3271 29.9705 16.8348 29.9705 21.1631" fill="#97CF26"/>
<path fill-rule="evenodd" clip-rule="evenodd" d="M27.0842 6.44073C27.0842 9.22665 24.7501 11.4845 21.8719 11.4845C18.9929 11.4845 16.6597 9.22665 16.6597 6.44073C16.6597 3.6548 18.9929 1.39697 21.8719 1.39697C24.7501 1.39697 27.0842 3.6548 27.0842 6.44073" fill="#FF6163"/>
<path fill-rule="evenodd" clip-rule="evenodd" d="M10.4254 21.1633C10.4254 23.1776 8.73752 24.8101 6.6567 24.8101C4.57506 24.8101 2.88721 23.1776 2.88721 21.1633C2.88721 19.1489 4.57506 17.5156 6.6567 17.5156C8.73752 17.5156 10.4254 19.1489 10.4254 21.1633" fill="#A169F7"/>
</svg>
