<svg width="106" height="29" viewBox="0 0 106 29" fill="none" xmlns="http://www.w3.org/2000/svg">
<path d="M26.9263 13.5809H32.7098V18.9153L35.9104 13.5809H42.2517L37.3366 20.6072L42.394 28.3972H35.7457L32.7098 22.7672V28.3972H26.9263V13.5809Z" fill="#006DB7"/>
<path d="M25.4661 27.9331C24.5602 28.4198 23.3212 28.8428 21.5842 28.8428C16.8751 28.8428 13.5322 25.7321 13.5322 20.9891C13.5322 15.6136 17.8259 13.1393 21.5019 13.1393C22.6773 13.1393 24.3095 13.435 25.4661 14.2585V19.4431C24.5789 18.3238 23.28 17.8747 22.2656 17.8747C20.1169 17.8747 19.0874 19.3345 19.0874 21.1352C19.0874 23.0181 20.4276 24.0962 22.2468 24.0962C23.5271 24.0962 24.6426 23.5047 25.4661 22.7411V27.9331Z" fill="#006DB7"/>
<path d="M5.7798 24.7475V22.524H6.47982C7.03761 22.524 7.92851 22.6288 7.92851 23.6245C7.92851 24.6615 7.01509 24.7475 6.47982 24.7475H5.7798ZM0 13.4874V28.3038H8.54615C12.5553 28.3038 13.4238 25.676 13.4238 24.1748C13.4238 22.1646 12.0799 20.7047 10.2195 20.3865V20.3454C11.4173 19.986 12.7387 18.9266 12.7387 17.257C12.7387 16.1116 12.3045 13.4874 8.15308 13.4874H0ZM5.7798 19.1175V17.0437H6.31885C7.32956 17.0437 7.59911 17.5753 7.59911 18.0806C7.59911 18.586 7.32956 19.1175 6.31885 19.1175H5.7798Z" fill="#006DB7"/>
<path d="M76.1892 15.4676L74.5386 15.5313L74.3887 15.127L72.7978 15.0147L72.7907 14.719L71.0869 14.6927L71.368 15.3066L72.128 15.3965L72.0345 15.1981L72.7232 15.6585L73.8649 15.9168L74.6249 15.943L76.5377 15.6885L76.1892 15.4676Z" fill="#56B9E9"/>
<path d="M71.9818 14.0302L71.2029 13.9254C71.2029 13.9254 71.2256 13.6559 70.9225 13.5062C70.6187 13.3564 70.6901 13.4949 70.6901 13.4949L70.3942 13.2778L69.8477 13.1842L69.8029 12.7762L69.0915 12.7387L69.1064 12.5366L68.5528 12.4692L68.3165 12.2559L68.3918 12.0238L68.2529 11.8141L67.5909 11.4997L67.0366 11.2789L66.6699 10.8558L66.2357 10.4777L65.6742 9.92746L64.274 9.4371L62.9451 8.45631L62.406 8.22797L61.8371 7.94719L60.6279 7.29586L58.8498 6.3039L54.9118 4.391L53.7887 3.89313C53.1524 3.61612 53.0476 3.47013 53.0326 3.38777C52.4561 3.25301 52.2652 3.15194 51.9657 2.84872C51.6588 2.85995 50.9812 2.4669 50.794 2.28721C50.794 2.27598 49.6336 1.93907 49.5588 1.8717C49.555 1.80057 46.549 0.741192 46.1822 0.651349C45.9201 0.628892 45.1939 0.494128 45.0928 0.445462C44.9693 0.445462 44.5089 0.299469 44.3217 0.28075C43.6966 0.209626 43.0976 0.1123 42.4538 0.101071C41.9933 0.0973263 41.7313 0.101071 41.327 0C41.1847 0.0898426 40.2414 -0.0786139 39.9082 0.16845C39.5302 0.183424 38.6692 0.374338 38.4296 0.490383C37.9168 0.512847 37.0408 1.07435 36.7451 1.22035C36.5991 1.29147 36.4419 1.36634 36.2847 1.4412C37.2242 1.77436 38.2949 2.16742 38.2949 2.2086C38.3697 2.27598 39.5265 2.61289 39.5302 2.62037C39.7173 2.8038 40.3949 3.19311 40.7018 3.18188C41.0013 3.4851 41.196 3.58617 41.7725 3.72093C41.7875 3.80329 41.8885 3.94928 42.5249 4.22629L43.6479 4.72416L47.5859 6.63706L49.364 7.62902L50.5732 8.28035L51.1422 8.56113L51.6812 8.78947L52.1229 9.11517L52.9914 9.45209L54.9492 10.0884L57.3113 11.0093L58.191 11.3126L59.0782 11.5896L59.4974 11.5109L59.9578 11.6682L60.467 12.1248L60.9873 11.9527L61.3392 12.0163L61.6199 12.3831L61.8034 12.6003L62.2488 12.735L62.6906 12.7912L63.2146 12.6938L63.8286 12.7463L64.0457 13.1131L64.9029 13.2628L65.5165 13.3115L66.1344 13.3601L66.6063 13.581L67.0405 14.0527L67.6577 14.18L69.2564 14.4121L70.7051 14.2361L71.6482 14.281L71.9818 14.0302Z" fill="#56B9E9"/>
<path d="M59.0073 16.3735L60.7105 16.3998L60.7217 16.6917L62.309 16.8078L62.4625 17.2158L64.1095 17.1484L64.4651 17.3693L62.5485 17.6238L61.7887 17.5976L60.6431 17.343L59.9544 16.8751L60.048 17.0773L59.288 16.9912L59.0073 16.3735Z" fill="#006DB7"/>
<path d="M59.1866 15.6735C59.1866 15.6735 59.209 15.404 58.9059 15.2542C58.6026 15.1007 58.67 15.243 58.67 15.243L58.3743 15.0259L57.8278 14.9323L57.7828 14.5243L57.0753 14.4906L57.094 14.2884L56.5363 14.2211L56.3005 14.0114L56.3753 13.7793L56.233 13.5697L55.5705 13.2515L55.0164 13.0307L54.6496 12.6152L54.2116 12.2333L53.6501 11.6831L52.2501 11.1927L50.9212 10.2157L50.3822 9.98726L49.8094 9.70654L48.604 9.05521L46.8222 8.05943L42.8879 6.14659L41.7649 5.64869C41.1285 5.37168 41.0237 5.2257 41.0087 5.14334C40.4322 5.00858 40.2413 4.90751 39.9381 4.6043C39.6349 4.61927 38.9535 4.22621 38.7664 4.04279C38.7664 4.03155 37.6097 3.69465 37.5348 3.62727C37.5311 3.55989 34.5252 2.49676 34.1583 2.40692C33.8925 2.38821 33.17 2.2497 33.069 2.20478C32.9454 2.20852 32.485 2.06253 32.2978 2.04007C31.6727 1.96895 31.0737 1.87162 30.4299 1.86039C29.9694 1.8529 29.7112 1.86039 29.3031 1.76306C29.1571 1.8529 28.2175 1.6807 27.8806 1.93151C27.5063 1.94649 26.6453 2.1374 26.4058 2.25344C25.8929 2.27216 25.0169 2.83742 24.7174 2.98341C24.4592 3.11068 24.1635 3.23796 23.9201 3.38769C23.8078 3.47754 22.1607 4.29359 22.0521 4.39467C22.0746 4.45082 20.4388 5.42412 20.2853 5.56633C20.2179 5.64123 19.7799 5.81713 19.6714 5.92195C19.559 6.03054 19.1211 6.42361 18.9714 6.49468C18.9077 6.62949 18.4922 6.77922 18.4248 6.91773C18.3275 7.05624 17.8296 7.29581 17.751 7.3894C17.736 7.40063 17.4628 7.62521 17.2419 7.80863C17.1521 7.92845 17.0585 8.05196 16.9686 8.17548C16.8601 8.21669 16.4221 8.46749 16.3098 8.55356C16.321 8.81558 16.3398 9.23111 15.9279 9.15251L15.445 9.43699C15.505 9.43329 15.1906 9.89743 14.9322 10.2194C14.7787 10.4066 14.0713 10.6649 13.9327 10.8558C13.6483 11.2488 13.2851 11.6119 13.0044 11.9975V12.0274H13.0381C13.0418 12.0798 13.3113 12.0724 13.3488 12.1772C13.4049 12.3307 13.2365 12.4654 13.1953 12.6002L13.229 12.5964V12.6264C13.4461 12.6189 13.6595 12.3905 13.8354 12.2969C13.9814 12.2446 14.1312 12.1809 14.2771 12.1247C14.5392 11.9713 14.7975 11.8178 15.0595 11.6606C17.0098 10.605 18.9564 9.54558 20.9067 8.48618C21.8388 7.98459 22.5837 7.51668 23.6094 6.94766C23.8565 6.81291 24.7923 6.18027 25.5036 6.13536C26.3982 6.07922 27.4726 6.30755 27.7609 6.42731C28.0378 6.52466 28.7154 6.86905 29.0561 6.95142C29.1609 6.99257 29.3555 7.13108 29.4004 7.13108C29.4341 7.17976 30.078 7.28082 30.4186 7.40063C30.5347 7.47547 30.647 7.54284 30.763 7.61021C31.3208 7.77494 32.7133 8.10064 33.2187 8.25784C33.6454 8.38889 33.9 8.62846 34.1134 8.67337C34.4053 8.87549 34.469 8.77067 34.8246 8.94662C35.3637 9.00277 35.6968 9.19372 35.7155 9.21241C35.884 9.27979 35.9963 9.35092 36.1647 9.4183C36.3032 9.43699 36.569 9.64287 36.6739 9.69531C36.8011 9.72154 37.6771 9.98732 37.7669 10.0322C37.9129 10.0172 38.5343 10.2867 38.6129 10.3542C38.7889 10.4365 38.9872 10.4814 39.1857 10.5226L40.975 11.2226L42.929 11.859L45.2911 12.7798L46.1746 13.0831L47.0618 13.3563L47.4772 13.2777L47.9377 13.4349L48.4468 13.8917L48.9672 13.7195L49.319 13.7831L49.5998 14.1499L49.7795 14.3708L50.2249 14.5019L50.6666 14.558L51.1907 14.4606L51.8046 14.5093L52.0218 14.8799L52.879 15.0259L53.4967 15.0746L54.1143 15.1233L54.586 15.3404L55.0164 15.8083L55.6342 15.9318L57.2363 16.1677L58.685 15.9917L59.6283 16.0366L59.9653 15.7821L59.1866 15.6735Z" fill="#006DB7"/>
<path d="M47.2154 27.7947C46.9384 27.9406 46.5678 28.0641 46.07 28.0641C45.2614 28.0641 44.7673 27.7834 44.3779 27.4203C43.8426 26.9075 43.6367 26.3347 43.6367 25.6497C43.6367 24.8149 43.9849 24.2085 44.3779 23.8416C44.8421 23.4036 45.4223 23.2314 46.0774 23.2314C46.4031 23.2314 46.7924 23.2876 47.2154 23.5159V24.5679C46.7924 24.0812 46.2646 24.0475 46.0961 24.0475C45.1678 24.0475 44.5651 24.8149 44.5651 25.6646C44.5651 26.6903 45.355 27.2444 46.1336 27.2444C46.5603 27.2444 46.9459 27.0572 47.2154 26.739V27.7947Z" fill="#006DB7"/>
<path d="M49.8548 27.9593H48.9489V24.1149H47.9082V23.34H50.8954V24.1149H49.8548V27.9593Z" fill="#006DB7"/>
<path d="M51.8086 23.34V27.9631H52.7145V26.2524H53.2984C53.83 26.2524 54.2119 26.0989 54.4701 25.8443C54.8257 25.4924 54.852 24.9908 54.852 24.8111C54.852 24.478 54.7546 24.0287 54.3803 23.6956C54.0396 23.3961 53.6803 23.3437 53.1599 23.3437H51.8086V23.34ZM52.7145 24.1149H53.0252C53.2423 24.1149 53.4781 24.1261 53.6653 24.2608C53.8 24.3582 53.9236 24.5304 53.9236 24.785C53.9236 24.9871 53.8412 25.193 53.6765 25.324C53.4819 25.4737 53.2573 25.4737 53.0851 25.4737H52.7182V24.1149H52.7145Z" fill="#006DB7"/>
<path d="M58.7188 27.9593H59.6883L57.738 23.2389H57.0567L55.0503 27.9593H56.0311L56.4428 26.9897H58.3108L58.7188 27.9593ZM56.7273 26.256L57.3937 24.5977L58.0487 26.256H56.7273Z" fill="#006DB7"/>
<path d="M61.7471 25.5224L60.3657 23.34H61.4476L62.2599 24.77L63.1134 23.34H64.199L62.7727 25.5224L64.3562 27.9593H63.2744L62.2599 26.2673L61.193 27.9593H60.1074L61.7471 25.5224Z" fill="#006DB7"/>
<path d="M67.6209 23.2352C66.1644 23.2352 65.1499 24.2459 65.1499 25.6534C65.1499 27.061 66.1644 28.0679 67.6209 28.0679C69.0767 28.0679 70.0912 27.061 70.0912 25.6534C70.0912 24.2459 69.0767 23.2352 67.6209 23.2352ZM67.6209 27.2481C66.7187 27.2481 66.0781 26.5855 66.0781 25.6534C66.0781 24.7176 66.7187 24.0513 67.6209 24.0513C68.5231 24.0513 69.163 24.7176 69.163 25.6534C69.163 26.5855 68.5231 27.2481 67.6209 27.2481Z" fill="#006DB7"/>
<path d="M72.1766 25.9491H72.5096C72.7043 25.9491 72.9328 25.9491 73.1275 26.0389C73.4228 26.17 73.4676 26.4208 73.4676 26.5668C73.4676 26.7465 73.404 26.9674 73.1794 27.0983C72.9775 27.2144 72.727 27.2256 72.5621 27.2256H72.1766V25.9491ZM71.2744 23.34V27.9631H72.8276C73.232 27.9631 73.6552 27.8957 74.0031 27.5888C74.3211 27.3042 74.3964 26.9261 74.3964 26.6529C74.3964 26.4096 74.3399 26.0502 74.0628 25.7844C73.9472 25.6759 73.7636 25.5448 73.4604 25.4962C73.5877 25.4251 73.981 25.1817 73.981 24.5865C73.981 24.1972 73.82 23.8379 73.55 23.6282C73.1762 23.34 72.6744 23.34 72.42 23.34H71.2744ZM72.1766 24.0737H72.4421C72.8088 24.0737 73.1346 24.2346 73.1346 24.6539C73.1346 25.2453 72.5732 25.2603 72.4349 25.2603H72.1766V24.0737Z" fill="#006DB7"/>
<path d="M77.8287 23.2352C76.3729 23.2352 75.3584 24.2459 75.3584 25.6534C75.3584 27.061 76.369 28.0679 77.8287 28.0679C79.2891 28.0679 80.2997 27.061 80.2997 25.6534C80.2997 24.2459 79.2852 23.2352 77.8287 23.2352ZM77.8287 27.2481C76.9272 27.2481 76.2866 26.5855 76.2866 25.6534C76.2866 24.7176 76.9272 24.0513 77.8287 24.0513C78.7309 24.0513 79.3715 24.7176 79.3715 25.6534C79.3676 26.5855 78.7309 27.2481 77.8287 27.2481Z" fill="#006DB7"/>
<path d="M82.8978 21.8613C83.0439 22.2506 83.4327 22.2656 83.5229 22.2656C83.6124 22.2656 84.0019 22.2506 84.1479 21.8613L84.773 22.1121C84.5932 22.58 84.1628 22.887 83.5229 22.887C82.8829 22.887 82.4558 22.5838 82.2721 22.1121L82.8978 21.8613ZM82.3812 23.3399V26.4432L84.9378 23.2314H85.5629V27.9593H84.6568V24.841L82.1001 28.0491H81.4751V23.3362H82.3812V23.3399Z" fill="#006DB7"/>
<path d="M89.3734 23.34V25.3465C89.3734 25.9866 89.2948 26.3347 89.2053 26.5593C89.0625 26.9074 88.8042 27.1994 88.4712 27.1845V29H89.3026V27.9593H92.1474V29H92.9821V27.1845H92.4954V23.34H89.3734ZM90.2496 24.1149H91.5971V27.1845H89.7291C89.8602 27.0609 89.9945 26.8925 90.0919 26.6379C90.1782 26.4171 90.2496 26.0614 90.2496 25.3465V24.1149Z" fill="#006DB7"/>
<path d="M96.1788 23.2352C94.723 23.2352 93.7085 24.2459 93.7085 25.6534C93.7085 27.061 94.723 28.0679 96.1788 28.0679C97.6392 28.0679 98.6498 27.061 98.6498 25.6534C98.6498 24.2459 97.6353 23.2352 96.1788 23.2352ZM96.1788 27.2481C95.2766 27.2481 94.6366 26.5855 94.6366 25.6534C94.6366 24.7176 95.2766 24.0513 96.1788 24.0513C97.0849 24.0513 97.7216 24.7176 97.7216 25.6534C97.7216 26.5855 97.081 27.2481 96.1788 27.2481Z" fill="#006DB7"/>
<path d="M99.5967 27.9593L100.454 23.2539H101.083L102.337 26.2748L103.647 23.2539H104.276L105.051 27.9593H104.134L103.718 25.1106L102.449 28.0192H102.198L100.982 25.1106L100.514 27.9593H99.5967Z" fill="#006DB7"/>
</svg>
